<?xml version="1.0" encoding="UTF-8"?>
<svg xmlns="http://www.w3.org/2000/svg" version="1.1" viewBox="0 0 433.3 114.7">
  <defs>
    <style>
      .cls-1 {
        fill: #fff;
      }
    </style>
  </defs>
  <!-- Generator: Adobe Illustrator 28.7.2, SVG Export Plug-In . SVG Version: 1.2.0 Build 154)  -->
  <g>
    <g id="_레이어_1" data-name="레이어_1">
      <g>
        <path class="cls-1" d="M103.1,97.8c0,.8-.3,1.2-1,1.4-2,.7-4.4,1.4-7.1,2.1-2.8.7-5.8,1.4-9,2-3.2.6-6.6,1.1-10.1,1.5-3.5.4-7,.6-10.5.6-10.5,0-19.3-1.2-26.5-3.6-7.2-2.4-13.2-5.9-18-10.5-4.7-4.4-8.2-9.4-10.5-15-2.3-5.7-3.5-11.8-3.5-18.3s1.5-15.6,4.6-21.9c3.1-6.3,7.3-11.6,12.7-15.9,5.4-4.3,11.7-7.5,19-9.7,7.3-2.2,15.3-3.3,23.8-3.3s13.7.5,19,1.6c5.4,1.1,9.5,2.3,12.3,3.6.8.4,1,1,.9,2l-5.4,20.4c-.2.5-.5.8-1,1-.5.2-1,.2-1.4,0-2.9-1.1-6.2-2.1-10.1-3-3.9-.9-8.9-1.3-15.1-1.3s-7.6.5-11,1.4c-3.4,1-6.5,2.4-9.1,4.3-2.7,1.9-4.8,4.4-6.3,7.5-1.5,3-2.3,6.7-2.3,10.8s.7,7.4,2.1,10.6c1.4,3.2,3.3,5.9,5.8,8.1,2.5,2.2,5.5,4,9.1,5.2,3.5,1.2,7.4,1.9,11.7,1.9s3.2,0,4.6-.1c1.5,0,2.6-.2,3.4-.4v-12.1h-12.7c-1,0-1.6-.6-1.6-1.7v-20c0-1.1.5-1.7,1.6-1.7h39.9c1,0,1.6.6,1.6,1.7v50.8Z"/>
        <path class="cls-1" d="M143.3,8.1c1,0,1.6.6,1.6,1.7v92.8c0,1.1-.5,1.7-1.6,1.7h-26.1c-1,0-1.6-.6-1.6-1.7V9.8c0-1.1.5-1.7,1.6-1.7h26.1Z"/>
        <path class="cls-1" d="M157.4,9.8c0-1.1.6-1.7,1.7-1.7h65.3c1.1,0,1.7.6,1.7,1.7v21c0,1-.6,1.6-1.7,1.6h-37.6v12.8h35.4c1,0,1.6.6,1.6,1.7v21c0,1-.5,1.6-1.6,1.6h-35.4v33.2c0,1.1-.5,1.7-1.6,1.7h-26.1c-1.1,0-1.7-.6-1.7-1.7V9.8Z"/>
        <path class="cls-1" d="M262.3,32.6h-24.7c-1,0-1.6-.5-1.6-1.6V9.8c0-1.1.5-1.7,1.6-1.7h79c1.1,0,1.7.6,1.7,1.7v21.2c0,1-.6,1.6-1.7,1.6h-25v70c0,1.1-.6,1.7-1.7,1.7h-26.1c-1,0-1.6-.6-1.6-1.7V32.6Z"/>
        <path class="cls-1" d="M332.2,104.3c-1,0-1.6-.6-1.6-1.7V9.8c0-1.1.5-1.7,1.6-1.7h32.8c.5,0,.9.3,1.3.9l15.4,26.8c2.2,3.9,4.4,8,6.6,12.3,2.2,4.3,4.2,8.6,6.1,12.9-.4-4.8-.6-9.2-.6-13.4,0-4.2,0-8.7,0-13.5V9.8c0-1.1.5-1.7,1.6-1.7h24.2c1,0,1.6.6,1.6,1.7v92.8c0,1.1-.5,1.7-1.6,1.7h-28.7c-.6,0-1-.3-1.4-.9l-16.8-30.7c-2.4-4.3-4.9-8.9-7.5-14-2.6-5-5.2-10.2-7.6-15.4.2,5.7.3,11.4.4,17,0,5.7.1,11.3.1,17v25.1c0,1.1-.5,1.7-1.6,1.7h-24.2Z"/>
      </g>
    </g>
  </g>
</svg>